<mxfile host="app.diagrams.net" modified="2023-10-24T06:35:02.762Z" agent="Mozilla/5.0 (Macintosh; Intel Mac OS X 10_15_7) AppleWebKit/537.36 (KHTML, like Gecko) Chrome/118.0.0.0 Safari/537.36" etag="NpYn0CeHb2B_gnYJHCPs" version="22.0.6" type="github">
  <diagram id="C5RBs43oDa-KdzZeNtuy" name="Page-1">
    <mxGraphModel dx="989" dy="1003" grid="1" gridSize="10" guides="1" tooltips="1" connect="1" arrows="1" fold="1" page="1" pageScale="1" pageWidth="827" pageHeight="1169" math="0" shadow="0">
      <root>
        <mxCell id="WIyWlLk6GJQsqaUBKTNV-0" />
        <mxCell id="WIyWlLk6GJQsqaUBKTNV-1" parent="WIyWlLk6GJQsqaUBKTNV-0" />
        <mxCell id="RNl5JlypkhgmCUlUvG7p-22" style="edgeStyle=orthogonalEdgeStyle;rounded=0;orthogonalLoop=1;jettySize=auto;html=1;entryX=0.5;entryY=0;entryDx=0;entryDy=0;" parent="WIyWlLk6GJQsqaUBKTNV-1" source="RNl5JlypkhgmCUlUvG7p-14" target="RNl5JlypkhgmCUlUvG7p-20" edge="1">
          <mxGeometry relative="1" as="geometry" />
        </mxCell>
        <mxCell id="RNl5JlypkhgmCUlUvG7p-23" value="&lt;font style=&quot;font-size: 15px;&quot;&gt;dispone&lt;/font&gt;" style="edgeLabel;html=1;align=center;verticalAlign=middle;resizable=0;points=[];" parent="RNl5JlypkhgmCUlUvG7p-22" vertex="1" connectable="0">
          <mxGeometry x="0.0933" y="-1" relative="1" as="geometry">
            <mxPoint as="offset" />
          </mxGeometry>
        </mxCell>
        <mxCell id="RNl5JlypkhgmCUlUvG7p-14" value="&lt;font style=&quot;font-size: 15px;&quot;&gt;Centro Tecnologico&lt;/font&gt;" style="swimlane;fontStyle=1;align=center;verticalAlign=top;childLayout=stackLayout;horizontal=1;startSize=26;horizontalStack=0;resizeParent=1;resizeParentMax=0;resizeLast=0;collapsible=1;marginBottom=0;whiteSpace=wrap;html=1;fillColor=#f0a30a;fontColor=#000000;strokeColor=#BD7000;" parent="WIyWlLk6GJQsqaUBKTNV-1" vertex="1">
          <mxGeometry x="340" y="40" width="160" height="50" as="geometry" />
        </mxCell>
        <mxCell id="RNl5JlypkhgmCUlUvG7p-15" value="" style="text;strokeColor=#BD7000;fillColor=#f0a30a;align=left;verticalAlign=top;spacingLeft=4;spacingRight=4;overflow=hidden;rotatable=0;points=[[0,0.5],[1,0.5]];portConstraint=eastwest;whiteSpace=wrap;html=1;fontColor=#000000;" parent="RNl5JlypkhgmCUlUvG7p-14" vertex="1">
          <mxGeometry y="26" width="160" height="24" as="geometry" />
        </mxCell>
        <mxCell id="RNl5JlypkhgmCUlUvG7p-20" value="&lt;font style=&quot;font-size: 15px;&quot;&gt;Instalaciones&lt;/font&gt;" style="swimlane;fontStyle=1;align=center;verticalAlign=top;childLayout=stackLayout;horizontal=1;startSize=26;horizontalStack=0;resizeParent=1;resizeParentMax=0;resizeLast=0;collapsible=1;marginBottom=0;whiteSpace=wrap;html=1;fillColor=#f0a30a;fontColor=#000000;strokeColor=#BD7000;" parent="WIyWlLk6GJQsqaUBKTNV-1" vertex="1">
          <mxGeometry x="340" y="170" width="160" height="100" as="geometry" />
        </mxCell>
        <mxCell id="RNl5JlypkhgmCUlUvG7p-21" value="oficinas individuales&lt;br&gt;salas para diez o doce&lt;br&gt;sala de conferencia" style="text;strokeColor=#BD7000;fillColor=#f0a30a;align=left;verticalAlign=top;spacingLeft=4;spacingRight=4;overflow=hidden;rotatable=0;points=[[0,0.5],[1,0.5]];portConstraint=eastwest;whiteSpace=wrap;html=1;fontColor=#000000;" parent="RNl5JlypkhgmCUlUvG7p-20" vertex="1">
          <mxGeometry y="26" width="160" height="74" as="geometry" />
        </mxCell>
        <mxCell id="RNl5JlypkhgmCUlUvG7p-26" style="edgeStyle=orthogonalEdgeStyle;rounded=0;orthogonalLoop=1;jettySize=auto;html=1;entryX=1;entryY=0.5;entryDx=0;entryDy=0;" parent="WIyWlLk6GJQsqaUBKTNV-1" source="RNl5JlypkhgmCUlUvG7p-24" target="RNl5JlypkhgmCUlUvG7p-20" edge="1">
          <mxGeometry relative="1" as="geometry" />
        </mxCell>
        <mxCell id="RNl5JlypkhgmCUlUvG7p-30" style="edgeStyle=orthogonalEdgeStyle;rounded=0;orthogonalLoop=1;jettySize=auto;html=1;entryX=0.5;entryY=0;entryDx=0;entryDy=0;" parent="WIyWlLk6GJQsqaUBKTNV-1" source="RNl5JlypkhgmCUlUvG7p-24" target="RNl5JlypkhgmCUlUvG7p-28" edge="1">
          <mxGeometry relative="1" as="geometry" />
        </mxCell>
        <mxCell id="RNl5JlypkhgmCUlUvG7p-24" value="&lt;font style=&quot;font-size: 15px;&quot;&gt;Empresa&lt;/font&gt;" style="swimlane;fontStyle=1;align=center;verticalAlign=top;childLayout=stackLayout;horizontal=1;startSize=26;horizontalStack=0;resizeParent=1;resizeParentMax=0;resizeLast=0;collapsible=1;marginBottom=0;whiteSpace=wrap;html=1;fillColor=#f0a30a;fontColor=#000000;strokeColor=#BD7000;" parent="WIyWlLk6GJQsqaUBKTNV-1" vertex="1">
          <mxGeometry x="610" y="330" width="160" height="50" as="geometry" />
        </mxCell>
        <mxCell id="RNl5JlypkhgmCUlUvG7p-25" value="" style="text;strokeColor=#BD7000;fillColor=#f0a30a;align=left;verticalAlign=top;spacingLeft=4;spacingRight=4;overflow=hidden;rotatable=0;points=[[0,0.5],[1,0.5]];portConstraint=eastwest;whiteSpace=wrap;html=1;fontColor=#000000;" parent="RNl5JlypkhgmCUlUvG7p-24" vertex="1">
          <mxGeometry y="26" width="160" height="24" as="geometry" />
        </mxCell>
        <mxCell id="RNl5JlypkhgmCUlUvG7p-27" value="&lt;font style=&quot;font-size: 15px;&quot;&gt;si quiere usar&amp;nbsp;&lt;br&gt;-tipo de instalacion&lt;br&gt;-numero de personas&lt;br&gt;-tiempo de duracion&lt;/font&gt;" style="text;html=1;align=center;verticalAlign=middle;resizable=0;points=[];autosize=1;strokeColor=none;fillColor=none;" parent="WIyWlLk6GJQsqaUBKTNV-1" vertex="1">
          <mxGeometry x="545" y="198" width="170" height="90" as="geometry" />
        </mxCell>
        <mxCell id="RNl5JlypkhgmCUlUvG7p-28" value="&lt;font style=&quot;font-size: 15px;&quot;&gt;Oferta&lt;/font&gt;" style="swimlane;fontStyle=1;align=center;verticalAlign=top;childLayout=stackLayout;horizontal=1;startSize=26;horizontalStack=0;resizeParent=1;resizeParentMax=0;resizeLast=0;collapsible=1;marginBottom=0;whiteSpace=wrap;html=1;fillColor=#f0a30a;fontColor=#000000;strokeColor=#BD7000;" parent="WIyWlLk6GJQsqaUBKTNV-1" vertex="1">
          <mxGeometry x="860" y="490" width="160" height="50" as="geometry" />
        </mxCell>
        <mxCell id="RNl5JlypkhgmCUlUvG7p-29" value="" style="text;strokeColor=#BD7000;fillColor=#f0a30a;align=left;verticalAlign=top;spacingLeft=4;spacingRight=4;overflow=hidden;rotatable=0;points=[[0,0.5],[1,0.5]];portConstraint=eastwest;whiteSpace=wrap;html=1;fontColor=#000000;" parent="RNl5JlypkhgmCUlUvG7p-28" vertex="1">
          <mxGeometry y="26" width="160" height="24" as="geometry" />
        </mxCell>
        <mxCell id="RNl5JlypkhgmCUlUvG7p-31" value="&lt;font style=&quot;font-size: 15px;&quot;&gt;despues de que el CTT&amp;nbsp;&lt;br&gt;valide la peticion&lt;/font&gt;" style="text;html=1;align=center;verticalAlign=middle;resizable=0;points=[];autosize=1;strokeColor=none;fillColor=none;" parent="WIyWlLk6GJQsqaUBKTNV-1" vertex="1">
          <mxGeometry x="700" y="408" width="180" height="50" as="geometry" />
        </mxCell>
        <mxCell id="RNl5JlypkhgmCUlUvG7p-32" value="&lt;font style=&quot;font-size: 15px;&quot;&gt;Trabajadores&lt;/font&gt;" style="swimlane;fontStyle=1;align=center;verticalAlign=top;childLayout=stackLayout;horizontal=1;startSize=26;horizontalStack=0;resizeParent=1;resizeParentMax=0;resizeLast=0;collapsible=1;marginBottom=0;whiteSpace=wrap;html=1;fillColor=#f0a30a;fontColor=#000000;strokeColor=#BD7000;" parent="WIyWlLk6GJQsqaUBKTNV-1" vertex="1">
          <mxGeometry x="200" y="490" width="160" height="50" as="geometry" />
        </mxCell>
        <mxCell id="RNl5JlypkhgmCUlUvG7p-33" value="" style="text;strokeColor=#BD7000;fillColor=#f0a30a;align=left;verticalAlign=top;spacingLeft=4;spacingRight=4;overflow=hidden;rotatable=0;points=[[0,0.5],[1,0.5]];portConstraint=eastwest;whiteSpace=wrap;html=1;fontColor=#000000;" parent="RNl5JlypkhgmCUlUvG7p-32" vertex="1">
          <mxGeometry y="26" width="160" height="24" as="geometry" />
        </mxCell>
        <mxCell id="RNl5JlypkhgmCUlUvG7p-35" value="&lt;font style=&quot;font-size: 14px;&quot;&gt;peticion de acceder a oferta&lt;br&gt;se tienen en cuenta la calificacion minima&lt;br&gt;es en orden de llegada&lt;/font&gt;" style="text;html=1;align=center;verticalAlign=middle;resizable=0;points=[];autosize=1;strokeColor=none;fillColor=none;" parent="WIyWlLk6GJQsqaUBKTNV-1" vertex="1">
          <mxGeometry x="340" y="440" width="280" height="60" as="geometry" />
        </mxCell>
        <mxCell id="RNl5JlypkhgmCUlUvG7p-38" style="edgeStyle=orthogonalEdgeStyle;rounded=0;orthogonalLoop=1;jettySize=auto;html=1;dashed=1;dashPattern=8 8;" parent="WIyWlLk6GJQsqaUBKTNV-1" source="RNl5JlypkhgmCUlUvG7p-36" edge="1">
          <mxGeometry relative="1" as="geometry">
            <mxPoint x="480" y="520" as="targetPoint" />
          </mxGeometry>
        </mxCell>
        <mxCell id="RNl5JlypkhgmCUlUvG7p-36" value="&lt;font style=&quot;font-size: 15px;&quot;&gt;Valoracion&lt;/font&gt;" style="swimlane;fontStyle=1;align=center;verticalAlign=top;childLayout=stackLayout;horizontal=1;startSize=26;horizontalStack=0;resizeParent=1;resizeParentMax=0;resizeLast=0;collapsible=1;marginBottom=0;whiteSpace=wrap;html=1;fillColor=#f0a30a;fontColor=#000000;strokeColor=#BD7000;" parent="WIyWlLk6GJQsqaUBKTNV-1" vertex="1">
          <mxGeometry x="400" y="680" width="160" height="50" as="geometry" />
        </mxCell>
        <mxCell id="RNl5JlypkhgmCUlUvG7p-37" value="" style="text;strokeColor=#BD7000;fillColor=#f0a30a;align=left;verticalAlign=top;spacingLeft=4;spacingRight=4;overflow=hidden;rotatable=0;points=[[0,0.5],[1,0.5]];portConstraint=eastwest;whiteSpace=wrap;html=1;fontColor=#000000;" parent="RNl5JlypkhgmCUlUvG7p-36" vertex="1">
          <mxGeometry y="26" width="160" height="24" as="geometry" />
        </mxCell>
        <mxCell id="RNl5JlypkhgmCUlUvG7p-39" value="&lt;font style=&quot;font-size: 14px;&quot;&gt;Una vez acaba el trabajo&lt;br&gt;el trabajador valorara&lt;/font&gt;" style="text;html=1;align=center;verticalAlign=middle;resizable=0;points=[];autosize=1;strokeColor=none;fillColor=none;" parent="WIyWlLk6GJQsqaUBKTNV-1" vertex="1">
          <mxGeometry x="480" y="585" width="180" height="50" as="geometry" />
        </mxCell>
        <mxCell id="RNl5JlypkhgmCUlUvG7p-40" value="&lt;font face=&quot;Comic Sans MS&quot; style=&quot;font-size: 18px;&quot;&gt;&lt;b&gt;Vector&lt;/b&gt;&lt;/font&gt;" style="text;html=1;align=center;verticalAlign=middle;resizable=0;points=[];autosize=1;strokeColor=none;fillColor=none;" parent="WIyWlLk6GJQsqaUBKTNV-1" vertex="1">
          <mxGeometry x="230" y="450" width="80" height="40" as="geometry" />
        </mxCell>
        <mxCell id="RNl5JlypkhgmCUlUvG7p-41" value="&lt;font face=&quot;Comic Sans MS&quot; style=&quot;font-size: 18px;&quot;&gt;&lt;b&gt;Vector&lt;/b&gt;&lt;/font&gt;" style="text;html=1;align=center;verticalAlign=middle;resizable=0;points=[];autosize=1;strokeColor=none;fillColor=none;" parent="WIyWlLk6GJQsqaUBKTNV-1" vertex="1">
          <mxGeometry x="700" y="450" width="80" height="40" as="geometry" />
        </mxCell>
        <mxCell id="RNl5JlypkhgmCUlUvG7p-42" value="&lt;font face=&quot;Comic Sans MS&quot; style=&quot;font-size: 18px;&quot;&gt;&lt;b&gt;Cola&lt;br&gt;nºsolicitudes&lt;br&gt;&lt;/b&gt;&lt;/font&gt;" style="text;html=1;align=center;verticalAlign=middle;resizable=0;points=[];autosize=1;strokeColor=none;fillColor=none;" parent="WIyWlLk6GJQsqaUBKTNV-1" vertex="1">
          <mxGeometry x="480" y="390" width="130" height="60" as="geometry" />
        </mxCell>
        <mxCell id="RNl5JlypkhgmCUlUvG7p-43" value="&lt;font face=&quot;Comic Sans MS&quot; style=&quot;font-size: 18px;&quot;&gt;&lt;b&gt;Vector&lt;/b&gt;&lt;/font&gt;" style="text;html=1;align=center;verticalAlign=middle;resizable=0;points=[];autosize=1;strokeColor=none;fillColor=none;" parent="WIyWlLk6GJQsqaUBKTNV-1" vertex="1">
          <mxGeometry x="675" y="288" width="80" height="40" as="geometry" />
        </mxCell>
        <mxCell id="RNl5JlypkhgmCUlUvG7p-44" value="&lt;font face=&quot;Comic Sans MS&quot; style=&quot;font-size: 18px;&quot;&gt;&lt;b&gt;Lista&lt;/b&gt;&lt;/font&gt;" style="text;html=1;align=center;verticalAlign=middle;resizable=0;points=[];autosize=1;strokeColor=none;fillColor=none;" parent="WIyWlLk6GJQsqaUBKTNV-1" vertex="1">
          <mxGeometry x="445" y="730" width="70" height="40" as="geometry" />
        </mxCell>
        <mxCell id="RNl5JlypkhgmCUlUvG7p-45" value="&lt;font face=&quot;Comic Sans MS&quot; style=&quot;font-size: 18px;&quot;&gt;&lt;b&gt;vector&lt;br&gt;inscripciones&lt;br&gt;&lt;/b&gt;&lt;/font&gt;" style="text;html=1;align=center;verticalAlign=middle;resizable=0;points=[];autosize=1;strokeColor=none;fillColor=none;" parent="WIyWlLk6GJQsqaUBKTNV-1" vertex="1">
          <mxGeometry x="349" y="390" width="130" height="60" as="geometry" />
        </mxCell>
        <mxCell id="RNl5JlypkhgmCUlUvG7p-46" value="&lt;font face=&quot;Comic Sans MS&quot; style=&quot;font-size: 18px;&quot;&gt;&lt;b&gt;(T)&lt;/b&gt;&lt;/font&gt;" style="text;html=1;align=center;verticalAlign=middle;resizable=0;points=[];autosize=1;strokeColor=none;fillColor=none;" parent="WIyWlLk6GJQsqaUBKTNV-1" vertex="1">
          <mxGeometry x="245" y="418" width="50" height="40" as="geometry" />
        </mxCell>
        <mxCell id="RNl5JlypkhgmCUlUvG7p-47" value="&lt;font face=&quot;Comic Sans MS&quot; style=&quot;font-size: 18px;&quot;&gt;&lt;b&gt;(IO)&lt;/b&gt;&lt;/font&gt;" style="text;html=1;align=center;verticalAlign=middle;resizable=0;points=[];autosize=1;strokeColor=none;fillColor=none;" parent="WIyWlLk6GJQsqaUBKTNV-1" vertex="1">
          <mxGeometry x="384" y="360" width="60" height="40" as="geometry" />
        </mxCell>
        <mxCell id="RNl5JlypkhgmCUlUvG7p-48" value="&lt;font face=&quot;Comic Sans MS&quot; style=&quot;font-size: 18px;&quot;&gt;&lt;b&gt;(VO)&lt;/b&gt;&lt;/font&gt;" style="text;html=1;align=center;verticalAlign=middle;resizable=0;points=[];autosize=1;strokeColor=none;fillColor=none;" parent="WIyWlLk6GJQsqaUBKTNV-1" vertex="1">
          <mxGeometry x="450" y="760" width="60" height="40" as="geometry" />
        </mxCell>
        <mxCell id="RNl5JlypkhgmCUlUvG7p-49" value="&lt;font face=&quot;Comic Sans MS&quot;&gt;&lt;span style=&quot;font-size: 18px;&quot;&gt;&lt;b&gt;(E)&lt;/b&gt;&lt;/span&gt;&lt;/font&gt;" style="text;html=1;align=center;verticalAlign=middle;resizable=0;points=[];autosize=1;strokeColor=none;fillColor=none;" parent="WIyWlLk6GJQsqaUBKTNV-1" vertex="1">
          <mxGeometry x="690" y="270" width="50" height="40" as="geometry" />
        </mxCell>
        <mxCell id="_K2y9GVvMoKha1thNPKI-4" style="edgeStyle=orthogonalEdgeStyle;rounded=0;orthogonalLoop=1;jettySize=auto;html=1;entryX=0.5;entryY=0;entryDx=0;entryDy=0;" edge="1" parent="WIyWlLk6GJQsqaUBKTNV-1" source="_K2y9GVvMoKha1thNPKI-0" target="_K2y9GVvMoKha1thNPKI-2">
          <mxGeometry relative="1" as="geometry" />
        </mxCell>
        <mxCell id="_K2y9GVvMoKha1thNPKI-0" value="&lt;font style=&quot;font-size: 15px;&quot;&gt;club&lt;/font&gt;" style="swimlane;fontStyle=1;align=center;verticalAlign=top;childLayout=stackLayout;horizontal=1;startSize=26;horizontalStack=0;resizeParent=1;resizeParentMax=0;resizeLast=0;collapsible=1;marginBottom=0;whiteSpace=wrap;html=1;fillColor=#f0a30a;fontColor=#000000;strokeColor=#BD7000;" vertex="1" parent="WIyWlLk6GJQsqaUBKTNV-1">
          <mxGeometry x="1280" y="40" width="160" height="50" as="geometry" />
        </mxCell>
        <mxCell id="_K2y9GVvMoKha1thNPKI-1" value="" style="text;strokeColor=#BD7000;fillColor=#f0a30a;align=left;verticalAlign=top;spacingLeft=4;spacingRight=4;overflow=hidden;rotatable=0;points=[[0,0.5],[1,0.5]];portConstraint=eastwest;whiteSpace=wrap;html=1;fontColor=#000000;" vertex="1" parent="_K2y9GVvMoKha1thNPKI-0">
          <mxGeometry y="26" width="160" height="24" as="geometry" />
        </mxCell>
        <mxCell id="_K2y9GVvMoKha1thNPKI-2" value="&lt;font style=&quot;font-size: 15px;&quot;&gt;Instalaciones&lt;/font&gt;" style="swimlane;fontStyle=1;align=center;verticalAlign=top;childLayout=stackLayout;horizontal=1;startSize=26;horizontalStack=0;resizeParent=1;resizeParentMax=0;resizeLast=0;collapsible=1;marginBottom=0;whiteSpace=wrap;html=1;fillColor=#f0a30a;fontColor=#000000;strokeColor=#BD7000;" vertex="1" parent="WIyWlLk6GJQsqaUBKTNV-1">
          <mxGeometry x="1280" y="188" width="160" height="100" as="geometry" />
        </mxCell>
        <mxCell id="_K2y9GVvMoKha1thNPKI-3" value="oficinas individuales&lt;br&gt;salas para diez o doce&lt;br&gt;sala de conferencia" style="text;strokeColor=#BD7000;fillColor=#f0a30a;align=left;verticalAlign=top;spacingLeft=4;spacingRight=4;overflow=hidden;rotatable=0;points=[[0,0.5],[1,0.5]];portConstraint=eastwest;whiteSpace=wrap;html=1;fontColor=#000000;" vertex="1" parent="_K2y9GVvMoKha1thNPKI-2">
          <mxGeometry y="26" width="160" height="74" as="geometry" />
        </mxCell>
        <mxCell id="_K2y9GVvMoKha1thNPKI-9" style="edgeStyle=orthogonalEdgeStyle;rounded=0;orthogonalLoop=1;jettySize=auto;html=1;entryX=0.5;entryY=0;entryDx=0;entryDy=0;" edge="1" parent="WIyWlLk6GJQsqaUBKTNV-1" source="_K2y9GVvMoKha1thNPKI-5" target="_K2y9GVvMoKha1thNPKI-7">
          <mxGeometry relative="1" as="geometry" />
        </mxCell>
        <mxCell id="_K2y9GVvMoKha1thNPKI-5" value="&lt;font style=&quot;font-size: 15px;&quot;&gt;entidades organizadoras&lt;/font&gt;" style="swimlane;fontStyle=1;align=center;verticalAlign=top;childLayout=stackLayout;horizontal=1;startSize=26;horizontalStack=0;resizeParent=1;resizeParentMax=0;resizeLast=0;collapsible=1;marginBottom=0;whiteSpace=wrap;html=1;fillColor=#f0a30a;fontColor=#000000;strokeColor=#BD7000;" vertex="1" parent="WIyWlLk6GJQsqaUBKTNV-1">
          <mxGeometry x="1500" y="320" width="180" height="70" as="geometry" />
        </mxCell>
        <mxCell id="_K2y9GVvMoKha1thNPKI-6" value="" style="text;strokeColor=#BD7000;fillColor=#f0a30a;align=left;verticalAlign=top;spacingLeft=4;spacingRight=4;overflow=hidden;rotatable=0;points=[[0,0.5],[1,0.5]];portConstraint=eastwest;whiteSpace=wrap;html=1;fontColor=#000000;" vertex="1" parent="_K2y9GVvMoKha1thNPKI-5">
          <mxGeometry y="26" width="180" height="44" as="geometry" />
        </mxCell>
        <mxCell id="_K2y9GVvMoKha1thNPKI-13" style="edgeStyle=orthogonalEdgeStyle;rounded=0;orthogonalLoop=1;jettySize=auto;html=1;entryX=1;entryY=0.5;entryDx=0;entryDy=0;" edge="1" parent="WIyWlLk6GJQsqaUBKTNV-1" source="_K2y9GVvMoKha1thNPKI-7" target="_K2y9GVvMoKha1thNPKI-11">
          <mxGeometry relative="1" as="geometry" />
        </mxCell>
        <mxCell id="_K2y9GVvMoKha1thNPKI-7" value="&lt;font style=&quot;font-size: 15px;&quot;&gt;eventos deportivos&lt;/font&gt;" style="swimlane;fontStyle=1;align=center;verticalAlign=top;childLayout=stackLayout;horizontal=1;startSize=26;horizontalStack=0;resizeParent=1;resizeParentMax=0;resizeLast=0;collapsible=1;marginBottom=0;whiteSpace=wrap;html=1;fillColor=#f0a30a;fontColor=#000000;strokeColor=#BD7000;" vertex="1" parent="WIyWlLk6GJQsqaUBKTNV-1">
          <mxGeometry x="1500" y="470" width="180" height="70" as="geometry" />
        </mxCell>
        <mxCell id="_K2y9GVvMoKha1thNPKI-8" value="" style="text;strokeColor=#BD7000;fillColor=#f0a30a;align=left;verticalAlign=top;spacingLeft=4;spacingRight=4;overflow=hidden;rotatable=0;points=[[0,0.5],[1,0.5]];portConstraint=eastwest;whiteSpace=wrap;html=1;fontColor=#000000;" vertex="1" parent="_K2y9GVvMoKha1thNPKI-7">
          <mxGeometry y="26" width="180" height="44" as="geometry" />
        </mxCell>
        <mxCell id="_K2y9GVvMoKha1thNPKI-10" style="edgeStyle=orthogonalEdgeStyle;rounded=0;orthogonalLoop=1;jettySize=auto;html=1;entryX=1.021;entryY=0.217;entryDx=0;entryDy=0;entryPerimeter=0;" edge="1" parent="WIyWlLk6GJQsqaUBKTNV-1" source="_K2y9GVvMoKha1thNPKI-5" target="_K2y9GVvMoKha1thNPKI-3">
          <mxGeometry relative="1" as="geometry" />
        </mxCell>
        <mxCell id="_K2y9GVvMoKha1thNPKI-11" value="&lt;font style=&quot;font-size: 15px;&quot;&gt;ficha del evento&lt;/font&gt;" style="swimlane;fontStyle=1;align=center;verticalAlign=top;childLayout=stackLayout;horizontal=1;startSize=26;horizontalStack=0;resizeParent=1;resizeParentMax=0;resizeLast=0;collapsible=1;marginBottom=0;whiteSpace=wrap;html=1;fillColor=#f0a30a;fontColor=#000000;strokeColor=#BD7000;" vertex="1" parent="WIyWlLk6GJQsqaUBKTNV-1">
          <mxGeometry x="1241" y="470" width="180" height="70" as="geometry" />
        </mxCell>
        <mxCell id="_K2y9GVvMoKha1thNPKI-12" value="" style="text;strokeColor=#BD7000;fillColor=#f0a30a;align=left;verticalAlign=top;spacingLeft=4;spacingRight=4;overflow=hidden;rotatable=0;points=[[0,0.5],[1,0.5]];portConstraint=eastwest;whiteSpace=wrap;html=1;fontColor=#000000;" vertex="1" parent="_K2y9GVvMoKha1thNPKI-11">
          <mxGeometry y="26" width="180" height="44" as="geometry" />
        </mxCell>
        <mxCell id="_K2y9GVvMoKha1thNPKI-17" style="edgeStyle=orthogonalEdgeStyle;rounded=0;orthogonalLoop=1;jettySize=auto;html=1;" edge="1" parent="WIyWlLk6GJQsqaUBKTNV-1" source="_K2y9GVvMoKha1thNPKI-14" target="RNl5JlypkhgmCUlUvG7p-32">
          <mxGeometry relative="1" as="geometry" />
        </mxCell>
        <mxCell id="_K2y9GVvMoKha1thNPKI-14" value="&lt;font style=&quot;font-size: 15px;&quot;&gt;crear solicitud&lt;br&gt;de pueto de trabajo&lt;br&gt;&lt;/font&gt;" style="swimlane;fontStyle=1;align=center;verticalAlign=top;childLayout=stackLayout;horizontal=1;startSize=26;horizontalStack=0;resizeParent=1;resizeParentMax=0;resizeLast=0;collapsible=1;marginBottom=0;whiteSpace=wrap;html=1;fillColor=#f0a30a;fontColor=#000000;strokeColor=#BD7000;" vertex="1" collapsed="1" parent="WIyWlLk6GJQsqaUBKTNV-1">
          <mxGeometry x="635" y="486" width="180" height="80" as="geometry">
            <mxRectangle x="635" y="490" width="175" height="50" as="alternateBounds" />
          </mxGeometry>
        </mxCell>
        <mxCell id="_K2y9GVvMoKha1thNPKI-15" value="" style="text;strokeColor=#BD7000;fillColor=#f0a30a;align=left;verticalAlign=top;spacingLeft=4;spacingRight=4;overflow=hidden;rotatable=0;points=[[0,0.5],[1,0.5]];portConstraint=eastwest;whiteSpace=wrap;html=1;fontColor=#000000;" vertex="1" parent="_K2y9GVvMoKha1thNPKI-14">
          <mxGeometry y="26" width="175" height="24" as="geometry" />
        </mxCell>
        <mxCell id="_K2y9GVvMoKha1thNPKI-16" style="edgeStyle=orthogonalEdgeStyle;rounded=0;orthogonalLoop=1;jettySize=auto;html=1;entryX=1.024;entryY=0.364;entryDx=0;entryDy=0;entryPerimeter=0;" edge="1" parent="WIyWlLk6GJQsqaUBKTNV-1" source="RNl5JlypkhgmCUlUvG7p-28" target="_K2y9GVvMoKha1thNPKI-14">
          <mxGeometry relative="1" as="geometry" />
        </mxCell>
        <mxCell id="_K2y9GVvMoKha1thNPKI-20" style="edgeStyle=orthogonalEdgeStyle;rounded=0;orthogonalLoop=1;jettySize=auto;html=1;" edge="1" parent="WIyWlLk6GJQsqaUBKTNV-1" source="_K2y9GVvMoKha1thNPKI-18" target="_K2y9GVvMoKha1thNPKI-19">
          <mxGeometry relative="1" as="geometry" />
        </mxCell>
        <mxCell id="_K2y9GVvMoKha1thNPKI-18" value="&lt;font face=&quot;Comic Sans MS&quot; style=&quot;font-size: 18px;&quot;&gt;&lt;b&gt;Jugadores&lt;/b&gt;&lt;/font&gt;" style="text;html=1;align=center;verticalAlign=middle;resizable=0;points=[];autosize=1;strokeColor=none;fillColor=none;" vertex="1" parent="WIyWlLk6GJQsqaUBKTNV-1">
          <mxGeometry x="732" y="780" width="110" height="40" as="geometry" />
        </mxCell>
        <mxCell id="_K2y9GVvMoKha1thNPKI-19" value="&lt;font face=&quot;Comic Sans MS&quot; style=&quot;font-size: 18px;&quot;&gt;&lt;b&gt;Trabajdores&lt;/b&gt;&lt;/font&gt;" style="text;html=1;align=center;verticalAlign=middle;resizable=0;points=[];autosize=1;strokeColor=none;fillColor=none;" vertex="1" parent="WIyWlLk6GJQsqaUBKTNV-1">
          <mxGeometry x="980" y="780" width="130" height="40" as="geometry" />
        </mxCell>
        <mxCell id="_K2y9GVvMoKha1thNPKI-23" style="edgeStyle=orthogonalEdgeStyle;rounded=0;orthogonalLoop=1;jettySize=auto;html=1;" edge="1" parent="WIyWlLk6GJQsqaUBKTNV-1" source="_K2y9GVvMoKha1thNPKI-21" target="_K2y9GVvMoKha1thNPKI-22">
          <mxGeometry relative="1" as="geometry" />
        </mxCell>
        <mxCell id="_K2y9GVvMoKha1thNPKI-21" value="&lt;font face=&quot;Comic Sans MS&quot; style=&quot;font-size: 18px;&quot;&gt;&lt;b&gt;Entidades&amp;nbsp;&lt;br&gt;organizadoras&lt;br&gt;&lt;br&gt;&lt;/b&gt;&lt;/font&gt;" style="text;html=1;align=center;verticalAlign=middle;resizable=0;points=[];autosize=1;strokeColor=none;fillColor=none;" vertex="1" parent="WIyWlLk6GJQsqaUBKTNV-1">
          <mxGeometry x="720" y="840" width="140" height="80" as="geometry" />
        </mxCell>
        <mxCell id="_K2y9GVvMoKha1thNPKI-22" value="&lt;font face=&quot;Comic Sans MS&quot; style=&quot;font-size: 18px;&quot;&gt;&lt;b&gt;Empresas&lt;/b&gt;&lt;/font&gt;" style="text;html=1;align=center;verticalAlign=middle;resizable=0;points=[];autosize=1;strokeColor=none;fillColor=none;" vertex="1" parent="WIyWlLk6GJQsqaUBKTNV-1">
          <mxGeometry x="990" y="860" width="100" height="40" as="geometry" />
        </mxCell>
        <mxCell id="_K2y9GVvMoKha1thNPKI-24" value="&lt;font face=&quot;Comic Sans MS&quot; style=&quot;font-size: 18px;&quot;&gt;&lt;b&gt;Fichas de los&amp;nbsp;&lt;br&gt;eventos deportivos&lt;br&gt;&lt;/b&gt;&lt;/font&gt;" style="text;html=1;align=center;verticalAlign=middle;resizable=0;points=[];autosize=1;strokeColor=none;fillColor=none;" vertex="1" parent="WIyWlLk6GJQsqaUBKTNV-1">
          <mxGeometry x="691" y="919" width="190" height="60" as="geometry" />
        </mxCell>
        <mxCell id="_K2y9GVvMoKha1thNPKI-26" value="&lt;font face=&quot;Comic Sans MS&quot; style=&quot;font-size: 18px;&quot;&gt;&lt;b&gt;Solicitud de&amp;nbsp;&lt;br&gt;puesto de trabajo&lt;br&gt;&lt;/b&gt;&lt;/font&gt;" style="text;html=1;align=center;verticalAlign=middle;resizable=0;points=[];autosize=1;strokeColor=none;fillColor=none;" vertex="1" parent="WIyWlLk6GJQsqaUBKTNV-1">
          <mxGeometry x="950" y="920" width="180" height="60" as="geometry" />
        </mxCell>
        <mxCell id="_K2y9GVvMoKha1thNPKI-27" style="edgeStyle=orthogonalEdgeStyle;rounded=0;orthogonalLoop=1;jettySize=auto;html=1;entryX=0.002;entryY=0.496;entryDx=0;entryDy=0;entryPerimeter=0;" edge="1" parent="WIyWlLk6GJQsqaUBKTNV-1" source="_K2y9GVvMoKha1thNPKI-24" target="_K2y9GVvMoKha1thNPKI-26">
          <mxGeometry relative="1" as="geometry" />
        </mxCell>
        <mxCell id="_K2y9GVvMoKha1thNPKI-28" value="&lt;font face=&quot;Comic Sans MS&quot;&gt;&lt;span style=&quot;font-size: 18px;&quot;&gt;&lt;b&gt;(T)&lt;/b&gt;&lt;/span&gt;&lt;/font&gt;" style="text;html=1;align=center;verticalAlign=middle;resizable=0;points=[];autosize=1;strokeColor=none;fillColor=none;" vertex="1" parent="WIyWlLk6GJQsqaUBKTNV-1">
          <mxGeometry x="1130" y="780" width="50" height="40" as="geometry" />
        </mxCell>
        <mxCell id="_K2y9GVvMoKha1thNPKI-29" value="&lt;font face=&quot;Comic Sans MS&quot;&gt;&lt;span style=&quot;font-size: 18px;&quot;&gt;&lt;b&gt;(E)&lt;/b&gt;&lt;/span&gt;&lt;/font&gt;" style="text;html=1;align=center;verticalAlign=middle;resizable=0;points=[];autosize=1;strokeColor=none;fillColor=none;" vertex="1" parent="WIyWlLk6GJQsqaUBKTNV-1">
          <mxGeometry x="1130" y="860" width="50" height="40" as="geometry" />
        </mxCell>
        <mxCell id="_K2y9GVvMoKha1thNPKI-30" value="&lt;font face=&quot;Comic Sans MS&quot;&gt;&lt;span style=&quot;font-size: 18px;&quot;&gt;&lt;b&gt;(S)&lt;/b&gt;&lt;/span&gt;&lt;/font&gt;" style="text;html=1;align=center;verticalAlign=middle;resizable=0;points=[];autosize=1;strokeColor=none;fillColor=none;" vertex="1" parent="WIyWlLk6GJQsqaUBKTNV-1">
          <mxGeometry x="1150" y="930" width="50" height="40" as="geometry" />
        </mxCell>
        <mxCell id="_K2y9GVvMoKha1thNPKI-37" style="edgeStyle=orthogonalEdgeStyle;rounded=0;orthogonalLoop=1;jettySize=auto;html=1;" edge="1" parent="WIyWlLk6GJQsqaUBKTNV-1" source="_K2y9GVvMoKha1thNPKI-31" target="_K2y9GVvMoKha1thNPKI-36">
          <mxGeometry relative="1" as="geometry" />
        </mxCell>
        <mxCell id="_K2y9GVvMoKha1thNPKI-31" value="&lt;font face=&quot;Comic Sans MS&quot; style=&quot;font-size: 18px;&quot;&gt;&lt;b&gt;nºeventos deportivos&lt;br&gt;&lt;/b&gt;&lt;/font&gt;" style="text;html=1;align=center;verticalAlign=middle;resizable=0;points=[];autosize=1;strokeColor=none;fillColor=none;" vertex="1" parent="WIyWlLk6GJQsqaUBKTNV-1">
          <mxGeometry x="681" y="1010" width="210" height="40" as="geometry" />
        </mxCell>
        <mxCell id="_K2y9GVvMoKha1thNPKI-32" value="&lt;font face=&quot;Comic Sans MS&quot; style=&quot;font-size: 18px;&quot;&gt;&lt;b&gt;nºeventos deportivos&lt;br&gt;de una entidad organizadora&lt;br&gt;&lt;/b&gt;&lt;/font&gt;" style="text;html=1;align=center;verticalAlign=middle;resizable=0;points=[];autosize=1;strokeColor=none;fillColor=none;" vertex="1" parent="WIyWlLk6GJQsqaUBKTNV-1">
          <mxGeometry x="590" y="1070" width="270" height="60" as="geometry" />
        </mxCell>
        <mxCell id="_K2y9GVvMoKha1thNPKI-33" value="&lt;font face=&quot;Comic Sans MS&quot; style=&quot;font-size: 18px;&quot;&gt;&lt;b&gt;nºeventos deportivos&lt;br&gt;en los que participa un jugador&lt;br&gt;&lt;/b&gt;&lt;/font&gt;" style="text;html=1;align=center;verticalAlign=middle;resizable=0;points=[];autosize=1;strokeColor=none;fillColor=none;" vertex="1" parent="WIyWlLk6GJQsqaUBKTNV-1">
          <mxGeometry x="580" y="1160" width="290" height="60" as="geometry" />
        </mxCell>
        <mxCell id="_K2y9GVvMoKha1thNPKI-34" value="&lt;font face=&quot;Comic Sans MS&quot; style=&quot;font-size: 18px;&quot;&gt;&lt;b&gt;valoracion de un evento deportivo&lt;br&gt;&lt;/b&gt;&lt;/font&gt;" style="text;html=1;align=center;verticalAlign=middle;resizable=0;points=[];autosize=1;strokeColor=none;fillColor=none;" vertex="1" parent="WIyWlLk6GJQsqaUBKTNV-1">
          <mxGeometry x="580" y="1250" width="320" height="40" as="geometry" />
        </mxCell>
        <mxCell id="_K2y9GVvMoKha1thNPKI-49" style="edgeStyle=orthogonalEdgeStyle;rounded=0;orthogonalLoop=1;jettySize=auto;html=1;" edge="1" parent="WIyWlLk6GJQsqaUBKTNV-1" source="_K2y9GVvMoKha1thNPKI-35" target="_K2y9GVvMoKha1thNPKI-47">
          <mxGeometry relative="1" as="geometry" />
        </mxCell>
        <mxCell id="_K2y9GVvMoKha1thNPKI-35" value="&lt;font face=&quot;Comic Sans MS&quot; style=&quot;font-size: 18px;&quot;&gt;&lt;b&gt;nº de inscripciones en un evento&amp;nbsp;&lt;br&gt;deportivo&lt;br&gt;&lt;br&gt;&lt;/b&gt;&lt;/font&gt;" style="text;html=1;align=center;verticalAlign=middle;resizable=0;points=[];autosize=1;strokeColor=none;fillColor=none;" vertex="1" parent="WIyWlLk6GJQsqaUBKTNV-1">
          <mxGeometry x="590" y="1330" width="310" height="80" as="geometry" />
        </mxCell>
        <mxCell id="_K2y9GVvMoKha1thNPKI-36" value="&lt;font face=&quot;Comic Sans MS&quot; style=&quot;font-size: 18px;&quot;&gt;&lt;b&gt;nºde ofertas&amp;nbsp;&lt;br&gt;de empleo&lt;br&gt;&lt;/b&gt;&lt;/font&gt;" style="text;html=1;align=center;verticalAlign=middle;resizable=0;points=[];autosize=1;strokeColor=none;fillColor=none;" vertex="1" parent="WIyWlLk6GJQsqaUBKTNV-1">
          <mxGeometry x="970" y="1000" width="150" height="60" as="geometry" />
        </mxCell>
        <mxCell id="_K2y9GVvMoKha1thNPKI-38" value="&lt;font face=&quot;Comic Sans MS&quot;&gt;&lt;span style=&quot;font-size: 18px;&quot;&gt;&lt;b&gt;(O)&lt;/b&gt;&lt;/span&gt;&lt;/font&gt;" style="text;html=1;align=center;verticalAlign=middle;resizable=0;points=[];autosize=1;strokeColor=none;fillColor=none;" vertex="1" parent="WIyWlLk6GJQsqaUBKTNV-1">
          <mxGeometry x="1140" y="1010" width="50" height="40" as="geometry" />
        </mxCell>
        <mxCell id="_K2y9GVvMoKha1thNPKI-39" value="&lt;font face=&quot;Comic Sans MS&quot; style=&quot;font-size: 18px;&quot;&gt;&lt;b&gt;nºde ofertas&amp;nbsp;&lt;br&gt;de empleo de una empresa&lt;br&gt;&lt;/b&gt;&lt;/font&gt;" style="text;html=1;align=center;verticalAlign=middle;resizable=0;points=[];autosize=1;strokeColor=none;fillColor=none;" vertex="1" parent="WIyWlLk6GJQsqaUBKTNV-1">
          <mxGeometry x="940" y="1070" width="250" height="60" as="geometry" />
        </mxCell>
        <mxCell id="_K2y9GVvMoKha1thNPKI-40" style="edgeStyle=orthogonalEdgeStyle;rounded=0;orthogonalLoop=1;jettySize=auto;html=1;entryX=-0.008;entryY=0.514;entryDx=0;entryDy=0;entryPerimeter=0;" edge="1" parent="WIyWlLk6GJQsqaUBKTNV-1" source="_K2y9GVvMoKha1thNPKI-32" target="_K2y9GVvMoKha1thNPKI-39">
          <mxGeometry relative="1" as="geometry" />
        </mxCell>
        <mxCell id="_K2y9GVvMoKha1thNPKI-41" value="&lt;font face=&quot;Comic Sans MS&quot;&gt;&lt;span style=&quot;font-size: 18px;&quot;&gt;&lt;b&gt;(OE)&lt;/b&gt;&lt;/span&gt;&lt;/font&gt;" style="text;html=1;align=center;verticalAlign=middle;resizable=0;points=[];autosize=1;strokeColor=none;fillColor=none;" vertex="1" parent="WIyWlLk6GJQsqaUBKTNV-1">
          <mxGeometry x="1186" y="1080" width="60" height="40" as="geometry" />
        </mxCell>
        <mxCell id="_K2y9GVvMoKha1thNPKI-42" value="&lt;font face=&quot;Comic Sans MS&quot; style=&quot;font-size: 18px;&quot;&gt;&lt;b&gt;nºde ofertas&amp;nbsp;&lt;br&gt;de empleo contratado&amp;nbsp;&lt;br&gt;trabajador&lt;br&gt;&lt;/b&gt;&lt;/font&gt;" style="text;html=1;align=center;verticalAlign=middle;resizable=0;points=[];autosize=1;strokeColor=none;fillColor=none;" vertex="1" parent="WIyWlLk6GJQsqaUBKTNV-1">
          <mxGeometry x="965" y="1145" width="220" height="80" as="geometry" />
        </mxCell>
        <mxCell id="_K2y9GVvMoKha1thNPKI-43" style="edgeStyle=orthogonalEdgeStyle;rounded=0;orthogonalLoop=1;jettySize=auto;html=1;entryX=-0.004;entryY=0.628;entryDx=0;entryDy=0;entryPerimeter=0;" edge="1" parent="WIyWlLk6GJQsqaUBKTNV-1" source="_K2y9GVvMoKha1thNPKI-33" target="_K2y9GVvMoKha1thNPKI-42">
          <mxGeometry relative="1" as="geometry" />
        </mxCell>
        <mxCell id="_K2y9GVvMoKha1thNPKI-44" value="&lt;font face=&quot;Comic Sans MS&quot;&gt;&lt;span style=&quot;font-size: 18px;&quot;&gt;&lt;b&gt;(OT)&lt;/b&gt;&lt;/span&gt;&lt;/font&gt;" style="text;html=1;align=center;verticalAlign=middle;resizable=0;points=[];autosize=1;strokeColor=none;fillColor=none;" vertex="1" parent="WIyWlLk6GJQsqaUBKTNV-1">
          <mxGeometry x="1200" y="1169" width="60" height="40" as="geometry" />
        </mxCell>
        <mxCell id="_K2y9GVvMoKha1thNPKI-45" value="&lt;font face=&quot;Comic Sans MS&quot; style=&quot;font-size: 18px;&quot;&gt;&lt;b&gt;Valoracion de oferta&lt;/b&gt;&lt;/font&gt;" style="text;html=1;align=center;verticalAlign=middle;resizable=0;points=[];autosize=1;strokeColor=none;fillColor=none;" vertex="1" parent="WIyWlLk6GJQsqaUBKTNV-1">
          <mxGeometry x="990" y="1250" width="200" height="40" as="geometry" />
        </mxCell>
        <mxCell id="_K2y9GVvMoKha1thNPKI-46" style="edgeStyle=orthogonalEdgeStyle;rounded=0;orthogonalLoop=1;jettySize=auto;html=1;entryX=0;entryY=0.5;entryDx=0;entryDy=0;entryPerimeter=0;" edge="1" parent="WIyWlLk6GJQsqaUBKTNV-1" source="_K2y9GVvMoKha1thNPKI-34" target="_K2y9GVvMoKha1thNPKI-45">
          <mxGeometry relative="1" as="geometry" />
        </mxCell>
        <mxCell id="_K2y9GVvMoKha1thNPKI-47" value="&lt;font face=&quot;Comic Sans MS&quot; style=&quot;font-size: 18px;&quot;&gt;&lt;b&gt;nº de inscripciones en&lt;br&gt;ofertas&lt;br&gt;&lt;br&gt;&lt;/b&gt;&lt;/font&gt;" style="text;html=1;align=center;verticalAlign=middle;resizable=0;points=[];autosize=1;strokeColor=none;fillColor=none;" vertex="1" parent="WIyWlLk6GJQsqaUBKTNV-1">
          <mxGeometry x="990" y="1330" width="220" height="80" as="geometry" />
        </mxCell>
        <mxCell id="_K2y9GVvMoKha1thNPKI-48" value="&lt;font face=&quot;Comic Sans MS&quot;&gt;&lt;span style=&quot;font-size: 18px;&quot;&gt;&lt;b&gt;(VO)&lt;/b&gt;&lt;/span&gt;&lt;/font&gt;" style="text;html=1;align=center;verticalAlign=middle;resizable=0;points=[];autosize=1;strokeColor=none;fillColor=none;" vertex="1" parent="WIyWlLk6GJQsqaUBKTNV-1">
          <mxGeometry x="1241" y="1250" width="60" height="40" as="geometry" />
        </mxCell>
        <mxCell id="_K2y9GVvMoKha1thNPKI-50" value="&lt;font face=&quot;Comic Sans MS&quot;&gt;&lt;span style=&quot;font-size: 18px;&quot;&gt;&lt;b&gt;(IO)&lt;/b&gt;&lt;/span&gt;&lt;/font&gt;" style="text;html=1;align=center;verticalAlign=middle;resizable=0;points=[];autosize=1;strokeColor=none;fillColor=none;" vertex="1" parent="WIyWlLk6GJQsqaUBKTNV-1">
          <mxGeometry x="1246" y="1340" width="60" height="40" as="geometry" />
        </mxCell>
      </root>
    </mxGraphModel>
  </diagram>
</mxfile>
